<svg xmlns="http://www.w3.org/2000/svg" width="703" height="606" viewBox="0 0 703 606">
    <defs>
        <style>
            .cls-1{fill:#bdc3dc}.cls-12,.cls-2,.cls-9{fill:#a7acb2}.cls-3{fill:#e7e8f1}.cls-5{fill:#407bff}.cls-8{fill:#d9dae3}.cls-9{opacity:.44}.cls-10{fill:#fff}.cls-12{opacity:.6}
        </style>
    </defs>
    <g id="Group_15156" transform="translate(-475 -827)">
        <g id="Group_15155">
            <g id="Group_15154">
                <g id="Group_15153" transform="translate(-9.614 -25.955)">
                    <g id="freepik--404--inject-32" transform="translate(604.615 1082.619)">
                        <path id="Path_23752" d="M174.351 331.387H86.83v-39.51l87.521-104.047h41.883v106.29h21.7v37.266h-21.7v32.334h-41.883zm0-37.266V239.7l-46.256 54.42z" class="cls-1" transform="translate(-86.83 -187.801)"/>
                        <path id="Path_23753" d="M202.3 276.553q0-49.319 17.749-69.038t54.094-19.7q17.447 0 28.665 4.315a52.915 52.915 0 0 1 18.281 11.2 59.82 59.82 0 0 1 11.147 14.512 75.339 75.339 0 0 1 6.544 17.749 165.925 165.925 0 0 1 4.833 40.272q0 47.061-15.922 68.88t-54.841 21.833q-21.833 0-35.282-6.961a57.188 57.188 0 0 1-22.049-20.409q-6.257-9.55-9.737-26.134a178.825 178.825 0 0 1-3.481-36.518zm47.665.115q0 33.081 5.825 45.119t16.929 12.1a17.749 17.749 0 0 0 12.686-5.135q5.379-5.135 7.911-16.224t2.531-34.519q0-34.433-5.839-46.3t-17.518-11.852q-11.909 0-17.26 12.1t-5.263 44.711z" class="cls-1" transform="translate(-36.221 -187.81)"/>
                        <path id="Path_23754" d="M398.41 331.387h-87.52v-39.51l87.521-104.047h41.883v106.29h21.776v37.266h-21.776v32.334H398.41zm0-37.266V239.7l-46.241 54.42z" class="cls-1" transform="translate(11.375 -187.801)"/>
                    </g>
                    <g id="freepik--Planets--inject-32" transform="translate(582.781 909.836)">
                        <g id="Group_15151">
                            <path id="Path_23755" d="M202.639 146.44a2.675 2.675 0 1 1-.778-1.9 2.69 2.69 0 0 1 .778 1.9z" class="cls-2" transform="translate(-16.595 -34.339)"/>
                            <circle id="Ellipse_608" cx="1.899" cy="1.899" r="1.899" class="cls-2" transform="translate(0 211.617)"/>
                            <circle id="Ellipse_609" cx="2.718" cy="2.718" r="2.718" class="cls-2" transform="translate(312.845 487.238)"/>
                            <circle id="Ellipse_610" cx="1.899" cy="1.899" r="1.899" class="cls-2" transform="translate(379.035 378.273)"/>
                            <path id="Path_23756" d="M425.327 96.2a1.9 1.9 0 1 1-1.9-1.9 1.9 1.9 0 0 1 1.9 1.9z" class="cls-2" transform="translate(81.702 -56.012)"/>
                            <path id="Path_23757" d="M173.907 69.579a1.9 1.9 0 1 1-1.9-1.9 1.9 1.9 0 0 1 1.9 1.9z" class="cls-2" transform="translate(-28.495 -67.68)"/>
                            <circle id="Ellipse_611" cx="1.899" cy="1.899" r="1.899" class="cls-2" transform="translate(294.463 97.718)"/>
                        </g>
                        <circle id="Ellipse_613" cx="31.513" cy="31.513" r="31.513" class="cls-3" transform="translate(68.564 38.503)"/>
                        <path id="Path_23758" fill="#a7acb2" d="M139.986 99.83a31.413 31.413 0 0 0-12.484 2.546 31.527 31.527 0 0 0 35.77 50.182 31.528 31.528 0 0 0-23.344-52.714z" opacity="0.41" transform="translate(-50.768 -53.589)"/>
                        <path id="Path_23759" d="M133.253 106.5a2.877 2.877 0 1 1-2.877-2.877 2.877 2.877 0 0 1 2.877 2.877z" class="cls-2" transform="translate(-47.171 -51.928)"/>
                        <path id="Path_23760" d="M156.813 104.5a2.877 2.877 0 1 1-2.877-2.877 2.877 2.877 0 0 1 2.877 2.877z" class="cls-2" transform="translate(-36.845 -52.804)"/>
                        <path id="Path_23761" d="M153.935 119.338a4.718 4.718 0 1 1-4.718-4.718 4.718 4.718 0 0 1 4.718 4.718z" class="cls-2" transform="translate(-39.72 -47.106)"/>
                        <path id="Path_23762" d="M144.479 129.17a6.3 6.3 0 1 1-6.3-6.3 6.3 6.3 0 0 1 6.3 6.3z" class="cls-2" transform="translate(-45.251 -43.49)"/>
                        <circle id="Ellipse_614" cx="27.658" cy="27.658" r="27.658" class="cls-5" transform="rotate(-76.72 500.038 -28.97)"/>
                        <circle id="Ellipse_615" cx="27.658" cy="27.658" r="27.658" class="cls-3" transform="rotate(-76.72 500.038 -28.97)"/>
                        <path id="Path_23763" fill="#cdd0d7" d="M405.189 361.7a27.644 27.644 0 0 0-25.415 47.924 27.327 27.327 0 0 0 7.954 1.179 27.658 27.658 0 0 0 17.461-49.1z" transform="translate(58.922 60.671)"/>
                        <path id="Path_23764" d="M367.962 387.257c-29.528 13.894-7.508 24.609 34.1 9.651 38.532-13.851 53.217-31.312 18.7-25.889 1.855 7.263-46.4 26.062-52.8 16.238z" class="cls-2" transform="translate(52.28 64.829)"/>
                    </g>
                    <path id="Path_23765" d="M426.254 187.83c-38.676 26.134-88.743 60.653-102.565 143.557h-2.949c13.448-81.987 61.689-117.322 100.379-143.557z" opacity="0.2" transform="translate(620.307 894.82)"/>
                    <path id="Path_23767" d="M275.675 477.244c-24.451 0-48.629-11.032-60.409-29.039-7.266-11.132-15.706-34.447 9.434-65.558l2.229 1.812c-17.777 22.006-21.057 44.084-9.248 62.178 14.383 22.006 48.312 33.081 77.28 25.2 29.672-8.069 47.68-33.872 49.42-70.793 5.94-126.3 73.037-165.2 122.025-193.61 30.449-17.648 52.44-30.391 47.608-57.3-.676-3.725-2.157-6.3-4.559-7.882-6.257-4.128-18.482-1.266-32.635 2.028-27.773 6.472-65.8 15.332-88.455-23.2l2.488-1.438c21.575 36.72 56.914 28.478 85.32 21.862 14.8-3.438 27.572-6.415 34.864-1.625 3.092 2.028 4.991 5.235 5.753 9.78 5.192 28.881-18.7 42.746-48.974 60.294-48.428 28.076-114.733 66.521-120.6 191.294-1.812 38.259-20.6 65.026-51.549 73.44a76.055 76.055 0 0 1-19.992 2.56z" class="cls-2" transform="translate(570.819 863.234)"/>
                    <path id="Path_23768" d="M312.76 97a66.234 66.234 0 0 1 19.532 3.064s15.821 27 17.691 33.182c-.662 6.1-10.945 16.095-10.945 16.095z" class="cls-5" transform="translate(616.81 855.008)"/>
                    <path id="Path_23769" d="M312.76 97a66.234 66.234 0 0 1 19.532 3.064s15.821 27 17.691 33.182c-.662 6.1-10.945 16.095-10.945 16.095z" class="cls-2" transform="translate(616.81 855.008)"/>
                    <path id="Path_23770" d="M360.19 213.648a203.39 203.39 0 0 1-16.627-23.559q-1.812-3.121-3.438-6.357c-.618-1.223-1.208-2.445-1.783-3.682a15.475 15.475 0 0 1-1.74-3.869c-1.726-18.223 4.516-31.643-1.438-46.27l-23.7 9.263s2.014 26.062 6.616 41.711c2.877 9.68 9.32 18.051 15.548 25.8 1.942 2.416 3.812 4.9 5.753 7.335s3.9 4.4 5.753 6.688c2.8 3.466 3.725 6.789 1.611 10.874l-.36.647c-.6 1.064 2.215 2.273 4 0 2.877-3.711 2.474-3.481 4.977-6.645 1.525-1.913 3.265-4 4.775-5.753a4.847 4.847 0 0 0 .053-6.183z" class="cls-5" transform="translate(616.24 869.431)"/>
                    <path id="Path_23771" d="M360.19 213.648a203.39 203.39 0 0 1-16.627-23.559q-1.812-3.121-3.438-6.357c-.618-1.223-1.208-2.445-1.783-3.682a15.475 15.475 0 0 1-1.74-3.869c-1.726-18.223 4.516-31.643-1.438-46.27l-23.7 9.263s2.014 26.062 6.616 41.711c2.877 9.68 9.32 18.051 15.548 25.8 1.942 2.416 3.812 4.9 5.753 7.335s3.9 4.4 5.753 6.688c2.8 3.466 3.725 6.789 1.611 10.874l-.36.647c-.6 1.064 2.215 2.273 4 0 2.877-3.711 2.474-3.481 4.977-6.645 1.525-1.913 3.265-4 4.775-5.753a4.847 4.847 0 0 0 .053-6.183z" class="cls-8" transform="translate(616.24 869.431)"/>
                    <path id="Path_23772" d="M345.106 182.92a78.66 78.66 0 0 1-12.456 10.816c.618.69 1.223 1.438 1.841 2.1a63.171 63.171 0 0 0 12.226-10.8z" class="cls-2" transform="translate(625.528 892.667)"/>
                    <path id="Path_23774" d="M323.432 112.326a50.887 50.887 0 0 1-9.162 10.341 33.467 33.467 0 0 1-6.357 4.315 27.318 27.318 0 0 1-3.711 1.568l-.978.316-.316.086-.676.187a8.525 8.525 0 0 1-1.266.2 10.859 10.859 0 0 1-3.61-.331 17.6 17.6 0 0 1-4.229-1.827 35.979 35.979 0 0 1-3.092-2.028 57.983 57.983 0 0 1-5.149-4.315 76.464 76.464 0 0 1-8.63-9.694 3.61 3.61 0 0 1 4.818-5.207h.115c3.394 2.157 6.818 4.43 10.154 6.458 1.7.992 3.337 2 4.962 2.776a21.988 21.988 0 0 0 2.287 1.036 4.487 4.487 0 0 0 1.539.374c.086 0 0-.1-.532-.086a4.215 4.215 0 0 0-.5 0l-.316.072.475-.244a19.451 19.451 0 0 0 1.855-1.136 26.462 26.462 0 0 0 3.6-3.049 91.507 91.507 0 0 0 7.048-8.328 7.192 7.192 0 0 1 11.506 8.529z" class="cls-5" transform="translate(600.499 856.941)"/>
                    <path id="Path_23775" d="M323.432 112.326a50.887 50.887 0 0 1-9.162 10.341 33.467 33.467 0 0 1-6.357 4.315 27.318 27.318 0 0 1-3.711 1.568l-.978.316-.316.086-.676.187a8.525 8.525 0 0 1-1.266.2 10.859 10.859 0 0 1-3.61-.331 17.6 17.6 0 0 1-4.229-1.827 35.979 35.979 0 0 1-3.092-2.028 57.983 57.983 0 0 1-5.149-4.315 76.464 76.464 0 0 1-8.63-9.694 3.61 3.61 0 0 1 4.818-5.207h.115c3.394 2.157 6.818 4.43 10.154 6.458 1.7.992 3.337 2 4.962 2.776a21.988 21.988 0 0 0 2.287 1.036 4.487 4.487 0 0 0 1.539.374c.086 0 0-.1-.532-.086a4.215 4.215 0 0 0-.5 0l-.316.072.475-.244a19.451 19.451 0 0 0 1.855-1.136 26.462 26.462 0 0 0 3.6-3.049 91.507 91.507 0 0 0 7.048-8.328 7.192 7.192 0 0 1 11.506 8.529z" class="cls-8" transform="translate(600.499 856.941)"/>
                    <path id="Path_23776" d="M272.39 104l1.683 2.877s1.28 3.768 3.855 4.459l6.99-2.258-.36-.59c-.892-1.352-.791-3.984-.489-6.17s-.82-2.258-1.654-1.712a5.5 5.5 0 0 0-1.208 2.373 11.171 11.171 0 0 0-1.136-1.338l-2.129-2.129a2.474 2.474 0 0 0-3.366-.086l-1.726 1.539a2.46 2.46 0 0 0-.46 3.035z" class="cls-5" transform="translate(598.971 855.802)"/>
                    <path id="Path_23777" d="M272.39 104l1.683 2.877s1.28 3.768 3.855 4.459l6.99-2.258-.36-.59c-.892-1.352-.791-3.984-.489-6.17s-.82-2.258-1.654-1.712a5.5 5.5 0 0 0-1.208 2.373 11.171 11.171 0 0 0-1.136-1.338l-2.129-2.129a2.474 2.474 0 0 0-3.366-.086l-1.726 1.539a2.46 2.46 0 0 0-.46 3.035z" class="cls-8" transform="translate(598.971 855.802)"/>
                    <path id="Path_23778" d="M325.283 95.269a85.78 85.78 0 0 0-22.064 9.306 6.214 6.214 0 0 0-2.79 6.515c2.776 13.578 9.09 31.758 15.908 43.336l31.8-13.16c.216-5.609-7.508-23.761-15.375-41.308-1.41-3.15-4.128-5.495-7.479-4.689z" class="cls-5" transform="translate(611.349 854.179)"/>
                    <path id="Path_23779" d="M325.283 95.269a85.78 85.78 0 0 0-22.064 9.306 6.214 6.214 0 0 0-2.79 6.515c2.776 13.578 9.09 31.758 15.908 43.336l31.8-13.16c.216-5.609-7.508-23.761-15.375-41.308-1.41-3.15-4.128-5.495-7.479-4.689z" class="cls-3" transform="translate(611.349 854.179)"/>
                    <path id="Path_23780" d="M328.224 106.854l-6.314-2.114c1.438 3.7 6.515 8.371 10.068 11.118-1.151-2.877-2.431-5.897-3.754-9.004z" class="cls-9" transform="translate(620.82 858.401)"/>
                    <path id="Path_23781" d="M323.966 87.465c-2.632-5.005-8.313-7.522-15.131-6.961-5.753.489-10.845 6.357-10.241 9.522s5.437 4.516 6.357 5.609l-3.984 2.877a4.315 4.315 0 0 0-.863 6.17c1.683 2.129 3.9 4.315 5.178 5.926 11.017-.288 19.172-4.487 22.121-8.529-1.103-5.121-.876-9.638-3.437-14.614z" class="cls-5" transform="translate(610.58 847.744)"/>
                    <path id="Path_23782" d="M323.966 87.465c-2.632-5.005-8.313-7.522-15.131-6.961-5.753.489-10.845 6.357-10.241 9.522s5.437 4.516 6.357 5.609l-3.984 2.877a4.315 4.315 0 0 0-.863 6.17c1.683 2.129 3.9 4.315 5.178 5.926 11.017-.288 19.172-4.487 22.121-8.529-1.103-5.121-.876-9.638-3.437-14.614z" class="cls-3" transform="translate(610.58 847.744)"/>
                    <path id="Path_23783" d="M318.87 89.592a10.888 10.888 0 1 1-14.11-6.185 10.888 10.888 0 0 1 14.11 6.185z" class="cls-2" transform="translate(610.268 848.724)"/>
                    <path id="Path_23784" d="M403.258 199.69c-.158-4.732-.374-4.315-.5-8.3-.086-2.445-.1-5.163-.115-7.508a4.833 4.833 0 0 0-3.883-4.718c-1.9-.388-3.811-.748-5.753-1.151-2.488-.532-4.948-1.108-7.379-1.812-1.9-.547-3.768-1.151-5.624-1.827s-3.941-1.438-5.868-2.33c-2.272-.964-4.516-2-6.731-3.078-2.488-1.179-4.948-2.416-7.407-3.668-9.464-15.663-9.665-25.99-19.82-38.1l-21.8 9.867s16.023 28.421 26.925 40.474c6.285 6.933 16.138 10.068 24.926 12.341 6.343 1.625 12.772 2.877 19.2 4.07 2.5.46 5.221.633 7.378 2.129a8.256 8.256 0 0 1 3.078 4.962q.144.6.259 1.208c.267 1.21 3.215.289 3.114-2.559z" class="cls-5" transform="translate(619.268 868.245)"/>
                    <path id="Path_23785" d="M403.258 199.69c-.158-4.732-.374-4.315-.5-8.3-.086-2.445-.1-5.163-.115-7.508a4.833 4.833 0 0 0-3.883-4.718c-1.9-.388-3.811-.748-5.753-1.151-2.488-.532-4.948-1.108-7.379-1.812-1.9-.547-3.768-1.151-5.624-1.827s-3.941-1.438-5.868-2.33c-2.272-.964-4.516-2-6.731-3.078-2.488-1.179-4.948-2.416-7.407-3.668-9.464-15.663-9.665-25.99-19.82-38.1l-21.8 9.867s16.023 28.421 26.925 40.474c6.285 6.933 16.138 10.068 24.926 12.341 6.343 1.625 12.772 2.877 19.2 4.07 2.5.46 5.221.633 7.378 2.129a8.256 8.256 0 0 1 3.078 4.962q.144.6.259 1.208c.267 1.21 3.215.289 3.114-2.559z" class="cls-3" transform="translate(619.268 868.245)"/>
                    <path id="Path_23786" d="M371.44 162.58c-.863-.187-1.726-.374-2.6-.59.072 4.977-2.258 13.549-3.107 16.152l2.733.518a54.815 54.815 0 0 0 2.977-16.08z" class="cls-2" transform="translate(640.027 883.492)"/>
                    <path id="Path_23788" d="M314.228 89.215c.575 2.186-1.87 4.473-3.811 2.589a44.345 44.345 0 0 0-5.926-5.307c-2-1.251.662-3.438 3.812-2.589a8.544 8.544 0 0 1 5.926 5.307z" class="cls-10" transform="translate(612.882 849.186)"/>
                    <path id="Path_23789" d="M311.252 140.173c-1.007.374.834 2.1.834 2.1s20.136-6.889 32.362-13.98a2.7 2.7 0 0 0-.978-2.273 310.669 310.669 0 0 1-32.218 14.153z" class="cls-5" transform="translate(616.017 867.728)"/>
                    <path id="Path_23790" d="M311.252 140.173c-1.007.374.834 2.1.834 2.1s20.136-6.889 32.362-13.98a2.7 2.7 0 0 0-.978-2.273 310.669 310.669 0 0 1-32.218 14.153z" class="cls-2" transform="translate(616.017 867.728)"/>
                    <path id="Path_23791" d="M324.652 94.855c3.97 2.014 7.695 4.128 11.506 6.472 1.855 1.179 3.7 2.373 5.523 3.668s3.639 2.618 5.466 4.114l.676.561.849.777a18.317 18.317 0 0 1 1.438 1.438c.46.5.849.992 1.223 1.438s.777.978 1.107 1.438a62.991 62.991 0 0 1 3.711 5.753 84.929 84.929 0 0 1 5.753 12.01 3.625 3.625 0 0 1-6.026 3.768l-.072-.086c-2.877-3.064-5.653-6.285-8.443-9.291s-5.624-6.055-7.968-7.393c-3.265-2.028-6.9-4.056-10.514-6.041l-10.874-6.041a7.193 7.193 0 0 1 6.731-12.715z" class="cls-5" transform="translate(617.431 853.643)"/>
                    <path id="Path_23792" d="M324.652 94.855c3.97 2.014 7.695 4.128 11.506 6.472 1.855 1.179 3.7 2.373 5.523 3.668s3.639 2.618 5.466 4.114l.676.561.849.777a18.317 18.317 0 0 1 1.438 1.438c.46.5.849.992 1.223 1.438s.777.978 1.107 1.438a62.991 62.991 0 0 1 3.711 5.753 84.929 84.929 0 0 1 5.753 12.01 3.625 3.625 0 0 1-6.026 3.768l-.072-.086c-2.877-3.064-5.653-6.285-8.443-9.291s-5.624-6.055-7.968-7.393c-3.265-2.028-6.9-4.056-10.514-6.041l-10.874-6.041a7.193 7.193 0 0 1 6.731-12.715z" class="cls-3" transform="translate(617.431 853.643)"/>
                    <path id="Path_23793" d="M353.375 128.2l-1.223-3.064s-.676-3.912-3.107-5.005l-7.191 1.136.245.633c.662 1.438.158 4.07-.489 6.17s.446 2.373 1.366 1.956c.518-.23 1.021-1.165 1.568-2.157a12.16 12.16 0 0 0 .906 1.438l1.769 2.431a2.474 2.474 0 0 0 3.308.633l1.956-1.251a2.445 2.445 0 0 0 .892-2.92z" class="cls-5" transform="translate(629.368 865.147)"/>
                    <path id="Path_23794" d="M353.375 128.2l-1.223-3.064s-.676-3.912-3.107-5.005l-7.191 1.136.245.633c.662 1.438.158 4.07-.489 6.17s.446 2.373 1.366 1.956c.518-.23 1.021-1.165 1.568-2.157a12.16 12.16 0 0 0 .906 1.438l1.769 2.431a2.474 2.474 0 0 0 3.308.633l1.956-1.251a2.445 2.445 0 0 0 .892-2.92z" class="cls-3" transform="translate(629.368 865.147)"/>
                    <path id="Path_23795" d="M321.058 106.06l-1.755.144-10.773 26a5.754 5.754 0 0 0 1.755-.144s14.038-5.235 18.281-7.192c-2.848-5.878-7.508-18.808-7.508-18.808z" class="cls-9" transform="translate(614.956 858.979)"/>
                    <path id="Path_23796" d="M303.57 112.834a62.438 62.438 0 0 0 7.191 19.331c5.264-1.812 14.038-5.235 18.3-7.191a194.684 194.684 0 0 1-7.609-18.813c-4.506.301-14.387 4.084-17.882 6.673z" class="cls-10" transform="translate(612.782 859.023)"/>
                    <path id="Path_23797" fill="#a7acb2" d="M313.215 116.165a3.711 3.711 0 1 1-2.488-4.617 3.711 3.711 0 0 1 2.488 4.617z" opacity="0.78" transform="translate(613.823 861.316)"/>
                    <path id="Path_23798" d="M313.645 111.727a1.223 1.223 0 1 1-.805-1.438 1.208 1.208 0 0 1 .805 1.438z" class="cls-12" transform="translate(616.14 860.805)"/>
                    <path id="Path_23799" d="M315.888 110.876a1.223 1.223 0 1 1-2.33-.7 1.208 1.208 0 0 1 1.51-.805 1.223 1.223 0 0 1 .82 1.51z" class="cls-12" transform="translate(617.119 860.406)"/>
                    <path id="Path_23800" fill="#a7acb2" d="M322.585 118.988l-13.3 5.25-.791-2.618 13.29-5.25z" opacity="0.73" transform="translate(614.938 863.498)"/>
                    <path id="Path_23801" d="M289.263 262.824a135.2 135.2 0 0 1-2.416 24.954q-2.547 11.09-7.911 16.222a17.691 17.691 0 0 1-12.671 5.135q-11.089 0-16.929-12.1a34.208 34.208 0 0 1-1.74-4.473 207.561 207.561 0 0 0-22.9 23.013l-7.637 9a55.545 55.545 0 0 0 14.052 10.341q13.434 6.947 35.267 6.961c2.56 0 5.034-.072 7.436-.216a206.236 206.236 0 0 0 21.718-41.711l21.359-55.691z" opacity="0.06" transform="translate(574.864 919.556)"/>
                    <path id="Path_23802" d="M133.39 323.147l25.17 25.17 70.477-66.406c-24.293-9.277-71.527 17.058-95.647 41.236z" class="cls-3" transform="translate(538.192 935.219)"/>
                    <path id="Path_23803" d="M202.09 400.147c-8.04-8.055-25.17-25.17-25.17-25.17l66.406-70.477c9.22 24.235-17.115 71.512-41.236 95.647z" class="cls-3" transform="translate(557.271 945.956)"/>
                    <path id="Path_23804" d="M310.888 276.834l27.457-52.944-52.945 27.486a207.433 207.433 0 0 0-46.658 33.081l-90.253 84.96 44.343 44.343 84.96-90.253a207.433 207.433 0 0 0 33.1-46.673z" class="cls-10" transform="translate(544.811 910.623)"/>
                    <path id="Path_23805" fill="#e7e8f1" d="M310.888 276.834l27.457-52.944-52.945 27.486a207.433 207.433 0 0 0-46.658 33.081l-90.253 84.96 44.343 44.343 84.96-90.253a207.433 207.433 0 0 0 33.1-46.673z" opacity="0.6" transform="translate(544.811 910.623)"/>
                    <circle id="Ellipse_616" cx="18.554" cy="18.554" r="18.554" class="cls-10" transform="translate(780.763 1199.798)"/>
                    <circle id="Ellipse_617" cx="11.924" cy="11.924" r="11.924" class="cls-2" transform="translate(787.394 1206.428)"/>
                    <path id="Path_23806" fill="#a7acb2" d="M202.982 368.247l-43.422-43.422 35.555-33.455 41.322 41.337z" opacity="0.36" transform="translate(549.662 940.2)"/>
                    <path id="Path_23807" d="M159.493 337.62c-32.506 2.632-43.278 23.444-46.96 51.1-1.87 14.11-2.7 28.392-14.541 36.648a3.984 3.984 0 0 0 2.344 7.278c43.638-1.366 63.99-22.725 66.55-31.643a61.931 61.931 0 0 1-3.581 13.621 3.97 3.97 0 0 0 5.753 4.876c12.24-7.666 27.6-21.79 28.622-44.7-9.003-12.758-38.187-37.18-38.187-37.18z" class="cls-10" transform="translate(521.912 960.472)"/>
                    <path id="Path_23808" d="M159.493 337.62c-32.506 2.632-43.278 23.444-46.96 51.1-1.87 14.11-2.7 28.392-14.541 36.648a3.984 3.984 0 0 0 2.344 7.278c43.638-1.366 63.99-22.725 66.55-31.643a61.931 61.931 0 0 1-3.581 13.621 3.97 3.97 0 0 0 5.753 4.876c12.24-7.666 27.6-21.79 28.622-44.7-9.003-12.758-38.187-37.18-38.187-37.18z" class="cls-3" transform="translate(521.912 957.077)"/>
                    <path id="Path_23809" fill="#d6d8de" d="M186.146 387.994l-52.066-52.066 27.73-6 30.334 30.334z" transform="translate(538.495 957.1)"/>
                    <path id="Rectangle_19171" fill="none" d="M0 0H703V606H0z" transform="translate(484.614 852.955)"/>
                </g>
            </g>
        </g>
    </g>
</svg>
