<svg xmlns="http://www.w3.org/2000/svg" width="24.11" height="24.333" viewBox="0 0 24.11 24.333">
    <defs>
        <linearGradient id="linear-gradient" x1=".422" x2=".578" y1=".006" y2=".994" gradientUnits="objectBoundingBox">
            <stop offset=".012" stop-color="#00b7f0"/>
            <stop offset=".339" stop-color="#009de5"/>
            <stop offset=".755" stop-color="#0082d9"/>
            <stop offset="1" stop-color="#0078d4"/>
        </linearGradient>
        <linearGradient id="linear-gradient-2" x1=".067" x2=".933" y1=".751" y2=".249" gradientUnits="objectBoundingBox">
            <stop offset="0" stop-color="#0078d4"/>
            <stop offset=".37" stop-color="#007ad5"/>
            <stop offset=".573" stop-color="#0082d9"/>
            <stop offset=".735" stop-color="#0090df"/>
            <stop offset=".875" stop-color="#00a3e7"/>
            <stop offset="1" stop-color="#00bcf2"/>
        </linearGradient>
        <linearGradient id="linear-gradient-3" x1=".305" x2=".804" y1=".161" y2="1.028" gradientUnits="objectBoundingBox">
            <stop offset="0" stop-color="#00b7f0"/>
            <stop offset="1" stop-color="#007cc1"/>
        </linearGradient>
        <style>
            .cls-3,.cls-4{fill-rule:evenodd}.cls-3{opacity:.05}.cls-4{opacity:.1}
        </style>
    </defs>
    <g id="Skype_logo__2019_present_" data-name="Skype_logo_(2019–present)" transform="translate(-381.726 -337.143)">
        <path id="Path_22349" fill="url(#linear-gradient)" d="M47.542 40.414a7.1 7.1 0 1 1-7.1-7.081 7.093 7.093 0 0 1 7.1 7.081" data-name="Path 22349" transform="translate(348.393 303.809)"/>
        <path id="Path_22350" fill="url(#linear-gradient-2)" d="M454.247 458.217a7.107 7.107 0 1 1-7.107-7.083 7.1 7.1 0 0 1 7.107 7.083" data-name="Path 22350" transform="translate(-48.411 -103.824)"/>
        <path id="Path_22351" d="M34.4 43.2a7.1 7.1 0 1 0 7.962-7.632A12.909 12.909 0 0 0 34.4 43.2z" class="cls-3" data-name="Path 22351" transform="translate(347.352 301.63)"/>
        <path id="Path_22352" d="M454.208 455.883a7.106 7.106 0 1 0-7.732 7.563 12.908 12.908 0 0 0 7.732-7.564z" class="cls-3" data-name="Path 22352" transform="translate(-48.391 -102)"/>
        <path id="Path_22353" d="M48.067 60.721a7.1 7.1 0 1 0 9.245-8.855 12.08 12.08 0 0 0-9.245 8.855z" class="cls-4" data-name="Path 22353" transform="translate(334.018 285.727)"/>
        <path id="Path_22354" d="M453.879 454.489a7.1 7.1 0 1 0-9.078 8.872 12.08 12.08 0 0 0 9.078-8.872z" class="cls-4" data-name="Path 22354" transform="translate(-48.384 -102.27)"/>
        <path id="Path_22355" d="M58.8 72.938a7.1 7.1 0 1 0 9.647-9.238 11.669 11.669 0 0 0-9.647 9.238z" class="cls-4" data-name="Path 22355" transform="translate(323.546 274.182)"/>
        <path id="Path_22356" d="M453.6 453.9a7.1 7.1 0 1 0-9.5 9.282 11.668 11.668 0 0 0 9.5-9.282z" class="cls-4" data-name="Path 22356" transform="translate(-48.366 -102.368)"/>
        <path id="Path_22357" fill="url(#linear-gradient-3)" d="M88.871 85.815A11.252 11.252 0 1 1 77.619 74.6a11.234 11.234 0 0 1 11.252 11.215" data-name="Path 22357" transform="translate(316.163 263.547)"/>
        <path id="Path_22358" fill="#fff" fill-rule="evenodd" d="M339.033 265.745a3.534 3.534 0 0 1-1.109-1.17 3.233 3.233 0 0 1-.38-1.617 2.906 2.906 0 0 1 .686-1.958 4.121 4.121 0 0 1 1.784-1.192 6.886 6.886 0 0 1 2.336-.393 9.058 9.058 0 0 1 1.554.119 5.609 5.609 0 0 1 1.078.278 2.091 2.091 0 0 1 .844.539 1.09 1.09 0 0 1 .26.724 1.049 1.049 0 0 1-.274.755.912.912 0 0 1-.689.287 1.242 1.242 0 0 1-.512-.115 9.274 9.274 0 0 0-1.219-.446 4.42 4.42 0 0 0-1.174-.146 2.681 2.681 0 0 0-1.471.376 1.224 1.224 0 0 0-.587 1.1 1.105 1.105 0 0 0 .305.773 2.776 2.776 0 0 0 .822.588q.517.256 1.541.68a1.613 1.613 0 0 1 .221.088 10.952 10.952 0 0 1 1.908.981 3.846 3.846 0 0 1 1.174 1.205 3.179 3.179 0 0 1 .424 1.674 3.367 3.367 0 0 1-.587 2.018 3.491 3.491 0 0 1-1.643 1.219 6.924 6.924 0 0 1-2.469.4 7.78 7.78 0 0 1-3.365-.637 1.831 1.831 0 0 1-.693-.539 1.211 1.211 0 0 1-.226-.733.958.958 0 0 1 .3-.746 1.091 1.091 0 0 1 .763-.269 1.952 1.952 0 0 1 .892.23q.513.256.809.384a4.058 4.058 0 0 0 .7.221 4 4 0 0 0 .9.092 2.392 2.392 0 0 0 1.506-.4 1.326 1.326 0 0 0 .508-1.1 1.168 1.168 0 0 0-.318-.8 3.379 3.379 0 0 0-.936-.681q-.619-.326-1.741-.795a10.772 10.772 0 0 1-1.912-.994" data-name="Path 22358" transform="translate(51.585 83.227)"/>
    </g>
</svg>
