<svg xmlns="http://www.w3.org/2000/svg" width="18.618" height="16" viewBox="0 0 18.618 16">
    <path d="M16.436 0H2.182A2.184 2.184 0 0 0 0 2.182v8.727a2.184 2.184 0 0 0 2.182 2.182h6.4v1.455H4.8V16h9.018v-1.455h-3.782v-1.454h6.4a2.184 2.184 0 0 0 2.182-2.182V2.182A2.184 2.184 0 0 0 16.436 0zm.727 10.909a.728.728 0 0 1-.727.727H2.182a.728.728 0 0 1-.727-.727V2.182a.728.728 0 0 1 .727-.727h14.254a.728.728 0 0 1 .727.727zm-4.945-7.268h-2.182v5.818h2.182A2.184 2.184 0 0 0 14.4 7.277V5.823a2.184 2.184 0 0 0-2.182-2.182zm.727 3.636a.728.728 0 0 1-.727.723h-.727V5.1h.727a.728.728 0 0 1 .727.727zm-5.675.577L7.125 8h1.493v1.459H4.691V8.333l.235-.216c.006-.005.582-.536 1.183-1.154A7.639 7.639 0 0 0 7.34 5.494a.489.489 0 0 0-.475-.4H4.691V3.641h2.174A1.928 1.928 0 0 1 8.8 5.558c0 .433-.256.968-1.53 2.296zm0 0" data-name="2d"/>
</svg>
