<svg xmlns="http://www.w3.org/2000/svg" width="17.232" height="20.141" viewBox="0 0 17.232 20.141">
    <g data-name="3d">
        <path d="M8.616 12.617l-1.77-.885v1.556l1.77.885 1.77-.885v-1.552z" data-name="Path 1336"/>
        <path d="M6.011 3.932L3.305 6.638v.048h2.754V3.932z" data-name="Path 1337"/>
        <path d="M7.239 3.932v3.934H3.305v10.19h10.623V3.932zm4.328 10.082l-2.951 1.475-2.951-1.475V9.842l2.951-1.5 2.951 1.5z" data-name="Path 1338"/>
        <path d="M8.616 9.669l-1.617.82 1.617.809 1.617-.809z" data-name="Path 1339"/>
        <path d="M8.616 0L0 4.516v.271l2.327 1.162 3.2-3.2h8.345z" data-name="Path 1340"/>
        <path d="M15.108 3.401v2.447l2.125-1.062v-.273z" data-name="Path 1341"/>
        <path d="M15.108 7.168v9.759l2.125-1.062V6.106z" data-name="Path 1342"/>
        <path d="M0 6.106v9.759l2.125 1.062V7.168z" data-name="Path 1343"/>
        <path d="M6.745 19.239l1.871.9 1.871-.9z" data-name="Path 1344"/>
    </g>
</svg>
