<svg xmlns="http://www.w3.org/2000/svg" width="19.429" height="17" viewBox="0 0 19.429 17">
    <defs>
        <style>
            .cls-1{fill:#f29f05}
        </style>
    </defs>
    <path id="enterprise" d="M0 2.429h1.214V17H0zm4.857 0h1.214V17H4.857zM1.214 15.786h3.643V17H1.214zm0-2.429h3.643v1.214H1.214zm0-2.429h3.643v1.214H1.214zm0-2.429h3.643v1.215H1.214zm0-2.429h3.643v1.216H1.214zm0-3.643h3.643v2.43H1.214zm1.214 0h1.215V17H2.429zm4.858 1.216H8.5V17H7.286zM8.5 15.786h3.643V17H8.5zm0-2.429h3.643v1.214H8.5zm0-2.429h3.643v1.214H8.5zm0-2.428h3.643v1.214H8.5zm0-2.429h3.643v1.215H8.5zm0-2.429h3.643v1.215H8.5zm2.429 0h1.214V17h-1.214zM13.357 0h1.214v17h-1.214zm4.857 0h1.214v17h-1.214zm-3.643 15.786h3.643V17h-3.643zm0-2.429h3.643v1.214h-3.643zm0-2.429h3.643v1.214h-3.643zm0-2.429h3.643v1.215h-3.643zm0-2.429h3.643v1.216h-3.643zm0-6.071h3.643v2.43h-3.643zm1.214 2.429H17V17h-1.214zm-1.214 1.215h3.643v1.214h-3.643z" class="cls-1"/>
</svg>
