<svg xmlns="http://www.w3.org/2000/svg" width="18.105" height="18.105" viewBox="0 0 18.105 18.105">
    <path d="M17.108 7.271h-2.53a6.563 6.563 0 0 0-.606-1.354l1.675-1.675a1.011 1.011 0 0 0 0-1.426l-.713-.713a1.011 1.011 0 0 0-1.426 0L11.8 3.814a5.5 5.5 0 0 0-1.5-.606V1a.974.974 0 0 0-1-1h-1a.974.974 0 0 0-1 1v2.21a6.107 6.107 0 0 0-1.639.677l-1.42-1.428a1.011 1.011 0 0 0-1.426 0l-.713.713a1.011 1.011 0 0 0 0 1.426l1.461 1.461a5.747 5.747 0 0 0-.677 1.746H1a.974.974 0 0 0-1 1v1a.974.974 0 0 0 1 1h2.029a5.637 5.637 0 0 0 .82 1.675l-1.39 1.39a1.011 1.011 0 0 0 0 1.426l.713.704A1.011 1.011 0 0 0 4.6 16l1.53-1.53a6.15 6.15 0 0 0 1.675.53v2.1a.974.974 0 0 0 1 1h1a.974.974 0 0 0 1-1v-2.352A4.944 4.944 0 0 0 12.231 14l1.639 1.639a1.011 1.011 0 0 0 1.426 0l.704-.706a1.011 1.011 0 0 0 0-1.426l-1.782-1.782a6.132 6.132 0 0 0 .5-1.426h2.388a.974.974 0 0 0 1-1v-1a1 1 0 0 0-.998-1.028zm-8.3 4.313a2.54 2.54 0 0 1-2.53-2.53 2.54 2.54 0 0 1 2.53-2.53 2.54 2.54 0 0 1 2.53 2.53A2.54 2.54 0 0 1 8.8 11.583z"/>
</svg>
