<svg xmlns="http://www.w3.org/2000/svg" width="4.138" height="15" viewBox="0 0 4.138 15">
    <defs>
        <style>
            .cls-1{fill:#333}
        </style>
    </defs>
    <path id="show-more" d="M202.138 2.069a2.063 2.063 0 0 1-2.069 2.069A2.083 2.083 0 0 1 198 2.069 2.083 2.083 0 0 1 200.069 0a2.063 2.063 0 0 1 2.069 2.069zm0 5.366a2.069 2.069 0 0 1-4.138 0 2.083 2.083 0 0 1 2.069-2.069 2.063 2.063 0 0 1 2.069 2.069zm0 5.5A2.063 2.063 0 0 1 200.069 15a2.069 2.069 0 1 1 0-4.138 2.063 2.063 0 0 1 2.069 2.069z" class="cls-1" transform="translate(-198)"/>
</svg>
