<svg xmlns="http://www.w3.org/2000/svg" width="12.014" height="12.015" viewBox="0 0 12.014 12.015">
    <defs>
        <style>
            .cls-1{fill:#606060}
        </style>
    </defs>
    <path id="time" d="M8.007-28.25a4.269 4.269 0 0 1 4.257 4.257 4.269 4.269 0 0 1-4.257 4.257 4.269 4.269 0 0 1-4.257-4.257 4.269 4.269 0 0 1 4.257-4.257m0-1.75A6.016 6.016 0 0 0 2-23.993a6.016 6.016 0 0 0 6.007 6.007 6.016 6.016 0 0 0 6.007-6.007A6.016 6.016 0 0 0 8.007-30zm.093 5.889a.43.43 0 0 1-.449-.426v-1.75a.449.449 0 0 1 .449-.449.445.445 0 0 1 .426.449v1.75a.424.424 0 0 1-.426.426zm2.176 1.75a.356.356 0 0 1-.26-.095l-2.2-1.75a.445.445 0 0 1-.071-.615.447.447 0 0 1 .615-.071l2.2 1.75a.447.447 0 0 1 .071.615.426.426 0 0 1-.354.166z" class="cls-1" transform="translate(-2 30)"/>
</svg>
