<svg xmlns="http://www.w3.org/2000/svg" width="74" height="73.985" viewBox="0 0 74 73.985">
    <defs>
        <style>
            .prefix__cls-1{fill:#6d6d6d}
        </style>
    </defs>
    <g id="prefix___7df2504429690a7d57fd84c8cf6ea9cb" data-name="7df2504429690a7d57fd84c8cf6ea9cb" transform="translate(-10.006 -10.084)">
        <g id="prefix__Group_9995" data-name="Group 9995" transform="translate(10.006 10.084)">
            <path id="prefix__Path_20868" d="M44.158-501.878c-1.549.159-4.039.535-5.212.8a37.1 37.1 0 0 0-28.288 28.94 30.281 30.281 0 0 0-.652 7.383 30.244 30.244 0 0 0 .811 7.89 37.27 37.27 0 0 0 15.9 22.975 38.133 38.133 0 0 0 13.029 5.313 31.353 31.353 0 0 0 7.456.652 29.2 29.2 0 0 0 5.284-.319 38.051 38.051 0 0 0 16.907-7.156 47.538 47.538 0 0 0 6.327-6.124 37.325 37.325 0 0 0 6.066-36.106 48.94 48.94 0 0 0-3.778-7.543 38.22 38.22 0 0 0-10.758-10.741 38.035 38.035 0 0 0-15.273-5.7 65.3 65.3 0 0 0-7.819-.264zm7.6 3.46a33.946 33.946 0 0 1 28.027 25.2 29.605 29.605 0 0 1 .985 8.31 29.348 29.348 0 0 1-1 8.338 33.848 33.848 0 0 1-24.466 24.452 28.43 28.43 0 0 1-8.252 1 29.476 29.476 0 0 1-8.411-1 33.852 33.852 0 0 1-21.6-17.01 34.561 34.561 0 0 1-3.59-11.032 41.313 41.313 0 0 1 0-9.454 33.88 33.88 0 0 1 26.291-28.346 40.276 40.276 0 0 1 4.777-.738 50.955 50.955 0 0 1 7.239.28z" class="prefix__cls-1" data-name="Path 20868" transform="translate(-10.006 501.916)"/>
            <path id="prefix__Path_20869" d="M465.271-406.609a35.844 35.844 0 0 0-.1 3.764v3.663h1.448l.029-2.36.043-2.345 1.578 2.345 1.578 2.36h1.4v-7.528H469.8v4.85l-1.621-2.432-1.607-2.418h-.608a1.536 1.536 0 0 0-.693.101z" class="prefix__cls-1" data-name="Path 20869" transform="translate(-430.801 413.899)"/>
            <path id="prefix__Path_20870" d="M203.094-308.334a.388.388 0 0 0 .014.333c.347.594 16.924 25.986 17.054 26.131s.405-.044 1.231-.883l1.071-1.085-.3-.724a3.615 3.615 0 0 1 3.272-5.081 3.77 3.77 0 0 1 1.491.319l.724.3 1.086-1.071c.84-.825 1.028-1.1.883-1.231-.232-.232-25.958-16.981-26.218-17.083a.257.257 0 0 0-.308.075z" class="prefix__cls-1" data-name="Path 20870" transform="translate(-188.486 323.036)"/>
            <path id="prefix__Path_20871" d="M394.062-247.137a20.346 20.346 0 0 0-5.776 1.766l-.376.2.695.478.695.478.883-.333a15.976 15.976 0 0 1 5.385-1.115 14.672 14.672 0 0 1 5.849.767 15.7 15.7 0 0 1 6.674 4.213 15.773 15.773 0 0 1 4.473 11.249 15.661 15.661 0 0 1-.955 5.458l-.535 1.534.478.709.492.695.405-.9a17.963 17.963 0 0 0 .043-15.041 18.56 18.56 0 0 0-8.671-8.657 18.531 18.531 0 0 0-9.759-1.501z" class="prefix__cls-1" data-name="Path 20871" transform="translate(-359.375 266.501)"/>
            <path id="prefix__Path_20872" d="M265.686-122.294a20.559 20.559 0 0 0-1.4 5.169 17.748 17.748 0 0 0 2.852 11.856 18.184 18.184 0 0 0 11.77 7.7 26.664 26.664 0 0 0 6.08 0A25.368 25.368 0 0 0 289.543-99l.854-.405-.697-.495-.709-.478-1.534.535a15.68 15.68 0 0 1-5.458.956 16.2 16.2 0 0 1-16.055-13.391 13.74 13.74 0 0 1-.174-3.4 14.135 14.135 0 0 1 1.071-5.4c.42-1.057.391-1.173-.3-2.056l-.319-.405z" class="prefix__cls-1" data-name="Path 20872" transform="translate(-244.969 152.111)"/>
            <path id="prefix__Path_20873" d="M452.343-66.437l-1.071 1.086.3.724a3.673 3.673 0 0 1-.97 4.242 3.812 3.812 0 0 1-3.966.478l-.565-.261L445-59.1c-.84.825-1.028 1.1-.883 1.231.434.405 26.088 17.039 26.291 17.054a.206.206 0 0 0 .217-.217c-.014-.2-16.649-25.871-17.054-26.291-.128-.142-.403.046-1.228.886z" class="prefix__cls-1" data-name="Path 20873" transform="translate(-411.3 100.176)"/>
            <path id="prefix__Path_20874" d="M821.78-61.685v3.764h5.647v-1.448h-4.2v-1.737h3.763v-1.448h-3.763v-1.592h4.053v-1.3h-5.5z" class="prefix__cls-1" data-name="Path 20874" transform="translate(-760.484 98.407)"/>
            <path id="prefix__Path_20875" d="M102.81-63.648c0 .174 1.882 7.181 1.969 7.311a1.277 1.277 0 0 0 .709.131h.637l.217-.767c.116-.405.434-1.549.695-2.519a11.58 11.58 0 0 1 .55-1.78 43.425 43.425 0 0 1 1.332 4.6c.131.464.159.478.8.434l.68-.044.912-3.33c1.259-4.648 1.216-4.126.347-4.126-.84 0-.652-.347-1.447 2.794-.232.941-.449 1.737-.478 1.78a16.609 16.609 0 0 1-.695-2.258l-.622-2.331-.811.044-.8.043-.666 2.389a11.123 11.123 0 0 1-.739 2.177c-.043-.116-.3-1.216-.579-2.418l-.492-2.215h-.753a1.862 1.862 0 0 0-.766.085z" class="prefix__cls-1" data-name="Path 20875" transform="translate(-95.802 96.838)"/>
            <path id="prefix__Path_20876" d="M469.289-43.761a2.349 2.349 0 0 0-.724 3.865 2.3 2.3 0 0 0 3.359 0 2.349 2.349 0 0 0-.724-3.865 1.955 1.955 0 0 0-1.911 0z" class="prefix__cls-1" data-name="Path 20876" transform="translate(-433.27 78.586)"/>
            <path id="prefix__Path_20877" d="M470.868 280.251a2.031 2.031 0 0 0-1.578 2.041c0 1.245.565 1.737 2.707 2.317a4.365 4.365 0 0 1 1.419.579c.319.362.174.811-.362 1.086-1.1.565-2.606-.058-2.606-1.071 0-.261-.087-.3-.724-.3H469v.507a2.3 2.3 0 0 0 .927 1.78 3.208 3.208 0 0 0 2.432.652c1.621-.043 2.809-1.143 2.678-2.49-.116-1.158-.825-1.737-2.664-2.215-1.419-.362-1.636-.478-1.636-.912 0-.464.377-.652 1.288-.652.811 0 1.318.333 1.318.854 0 .405.217.492.868.376.535-.087.579-.131.579-.565a2.3 2.3 0 0 0-1.129-1.722 5.064 5.064 0 0 0-2.793-.265z" class="prefix__cls-1" data-name="Path 20877" transform="translate(-434.342 -221.104)"/>
        </g>
    </g>
</svg>
