<svg xmlns="http://www.w3.org/2000/svg" id="IRRR_icon" width="53.167" height="53.167" viewBox="0 0 53.167 53.167">
    <defs>
        <style>
            .cls-1{fill:#f7b84b}
        </style>
    </defs>
    <path id="Path_507" d="M35.673 24.922a4.655 4.655 0 0 0 3.241-1.311L43.5 25.9a4.672 4.672 0 1 0 8.852-1.437l6.231-6.231a4.673 4.673 0 0 0 6.473-5.614l5.414-4.06A4.667 4.667 0 1 0 68.6 6.07l-5.414 4.06a4.671 4.671 0 0 0-6.8 5.9l-6.231 6.231a4.663 4.663 0 0 0-5.254.854l-4.584-2.292a4.672 4.672 0 1 0-4.636 4.1zM73.056 3.115A1.558 1.558 0 1 1 71.5 4.673a1.56 1.56 0 0 1 1.556-1.558zm-12.461 9.346a1.558 1.558 0 1 1-1.558 1.558 1.56 1.56 0 0 1 1.558-1.558zM48.134 24.922a1.558 1.558 0 1 1-1.558 1.558 1.56 1.56 0 0 1 1.558-1.558zm-12.461-6.23a1.558 1.558 0 1 1-1.558 1.558 1.56 1.56 0 0 1 1.558-1.559z" class="cls-1" data-name="Path 507" transform="translate(-27.781)"/>
    <path id="Path_508" d="M51.609 184.475h-1.662v-32.917A1.558 1.558 0 0 0 48.39 150h-6.23a1.558 1.558 0 0 0-1.558 1.558v32.918h-3.115V160.9a1.558 1.558 0 0 0-1.558-1.558H29.7a1.558 1.558 0 0 0-1.558 1.558v23.572h-3.116v-11.108a1.558 1.558 0 0 0-1.558-1.558h-6.23a1.558 1.558 0 0 0-1.558 1.558v11.111h-3.115v-17.341a1.558 1.558 0 0 0-1.558-1.558h-6.23a1.558 1.558 0 0 0-1.558 1.558v17.341H1.558a1.558 1.558 0 1 0 0 3.115h50.051a1.558 1.558 0 0 0 0-3.115zm-7.892-31.36h3.115v31.36h-3.115zm-12.461 9.346h3.115v22.014h-3.115zM18.8 174.922h3.11v9.553H18.8zm-12.461-6.23H9.45v15.784H6.334z" class="cls-1" data-name="Path 508" transform="translate(0 -134.424)"/>
</svg>
