<svg xmlns="http://www.w3.org/2000/svg" width="122.176" height="122.176" viewBox="0 0 122.176 122.176">
  <g id="logo_minerva" transform="translate(-146 -226)">
    <g id="minerva_logo" transform="translate(118 128)">
      <circle id="Ellipse_364" data-name="Ellipse 364" cx="61.088" cy="61.088" r="61.088" transform="translate(28 98)" fill="#fcfcfc"/>
      <g id="Group_9100" data-name="Group 9100" transform="translate(-33.082 -183.233)">
        <path id="Path_19051" data-name="Path 19051" d="M122.594,399.6a56.857,56.857,0,1,1,56.857-56.857A56.922,56.922,0,0,1,122.594,399.6Zm0-108.4a51.545,51.545,0,1,0,51.544,51.545A51.6,51.6,0,0,0,122.594,291.2Z" fill="#d38426"/>
        <g id="Group_9096" data-name="Group 9096" transform="translate(88.319 308.47)">
          <path id="Path_19052" data-name="Path 19052" d="M97.016,365.656l-.793-.848a34.275,34.275,0,1,1,53.852-4.833l-1,1.554-1.805-.4a38.321,38.321,0,0,0-9.394-.987h0a74.283,74.283,0,0,0-18.045,2.658,80.221,80.221,0,0,1-21.652,2.852Zm24.25-53.2a28.955,28.955,0,0,0-21.929,47.871,74.436,74.436,0,0,0,19.213-2.682,79.739,79.739,0,0,1,19.175-2.814h0a42.678,42.678,0,0,1,8.811.729,28.956,28.956,0,0,0-25.271-43.1Z" transform="translate(-86.991 -307.142)" fill="#d38426"/>
          <path id="Path_19053" data-name="Path 19053" d="M129.354,367.352" transform="translate(-84.343 -303.379)" fill="#d38426"/>
        </g>
        <g id="Group_9097" data-name="Group 9097" transform="translate(72.598 292.043)">
          <path id="Path_19054" data-name="Path 19054" d="M72.194,338.421l14.028-5.807a34.173,34.173,0,0,0-.153,12.009Z" transform="translate(-72.194 -289.122)" fill="#d38426"/>
          <path id="Path_19055" data-name="Path 19055" d="M91.176,320.177a36.325,36.325,0,0,0-4.723,11.038L75.995,320.2Z" transform="translate(-71.956 -289.9)" fill="#d38426"/>
          <path id="Path_19056" data-name="Path 19056" d="M91.8,319.289l-5.473-14.174,14.038,5.762A36.741,36.741,0,0,0,91.8,319.289Z" transform="translate(-71.311 -290.841)" fill="#d38426"/>
          <path id="Path_19057" data-name="Path 19057" d="M101.3,310.3l.341-15.19,10.78,10.672A36.3,36.3,0,0,0,101.3,310.3Z" transform="translate(-70.375 -291.467)" fill="#d38426"/>
          <path id="Path_19058" data-name="Path 19058" d="M119.586,305.1a36.579,36.579,0,0,0-5.757.5l6.105-13.917,5.908,13.992A36.666,36.666,0,0,0,119.586,305.1Z" transform="translate(-69.592 -291.681)" fill="#d38426"/>
          <path id="Path_19059" data-name="Path 19059" d="M127.187,305.888l10.938-10.532.13,15.187A36.327,36.327,0,0,0,127.187,305.888Z" transform="translate(-68.757 -291.451)" fill="#d38426"/>
          <path id="Path_19060" data-name="Path 19060" d="M139.337,311.149l14.131-5.571L147.8,319.665A36.716,36.716,0,0,0,139.337,311.149Z" transform="translate(-67.997 -290.812)" fill="#d38426"/>
          <path id="Path_19061" data-name="Path 19061" d="M148.457,320.583l15.19.235-10.6,10.861A36.316,36.316,0,0,0,148.457,320.583Z" transform="translate(-67.427 -289.874)" fill="#d38426"/>
          <path id="Path_19062" data-name="Path 19062" d="M153.7,339.089a36.681,36.681,0,0,0-.534-6.006l13.956,6.006L153.169,345.1A36.7,36.7,0,0,0,153.7,339.089Z" transform="translate(-67.133 -289.093)" fill="#d38426"/>
        </g>
        <g id="Group_9099" data-name="Group 9099" transform="translate(69.195 356.145)">
          <g id="Group_9098" data-name="Group 9098">
            <path id="Path_19063" data-name="Path 19063" d="M123.41,395.46c-.981,0-4.058-.057-5.043-.132-21.793-1.651-39.509-14.624-48.309-34.453l-1.067-2.5,2.522-1.012c3.541-1.416,11.547-2.31,16.478,4.476,3.954,5.441,12.567,11.7,22.138,12.6a24.346,24.346,0,0,0,11.293-1.587,34.449,34.449,0,0,1-24.2-10.934l-3.726-4.357,5.733-.025a74.808,74.808,0,0,0,20.447-2.695,79.731,79.731,0,0,1,19.175-2.814c16.2-.442,31.918,9.956,32.579,10.4l2.025,1.36-1.182,2.132A56.929,56.929,0,0,1,123.41,395.46ZM76.291,361.713c8.793,16.842,24.212,26.182,43.392,28.374a51.311,51.311,0,0,0,46.658-24.546c-4.628-2.673-16.1-8.533-27.344-8.2a74.274,74.274,0,0,0-18.045,2.658,81.586,81.586,0,0,1-14.827,2.589c5.162,3.455,14.209,7.225,26.156,3.209l11.461-3.852-8.791,8.3c-7.469,7.052-16.218,10.334-25.313,9.485-11.276-1.051-21.154-8.171-25.943-14.761A8.005,8.005,0,0,0,76.291,361.713Z" transform="translate(-68.992 -352.012)" fill="#2e6b24"/>
          </g>
        </g>
      </g>
    </g>
  </g>
</svg>
