<svg xmlns="http://www.w3.org/2000/svg" width="159.055" height="45.152" viewBox="0 0 159.055 45.152">
    <defs>
        <style>
            .prefix__cls-1{fill:#fcfcfc}.prefix__cls-2{fill:#d38426}
        </style>
    </defs>
    <g id="prefix__logo_dark_bg" transform="translate(-28.697 -95.697)">
        <g id="prefix__logo_minerva" transform="translate(28.697 95.697)">
            <g id="prefix__minerva_logo">
                <circle id="prefix__Ellipse_364" cx="22.576" cy="22.576" r="22.576" class="prefix__cls-1" data-name="Ellipse 364"/>
                <g id="prefix__Group_9100" data-name="Group 9100" transform="translate(1.72 1.72)">
                    <path id="prefix__Path_19051" d="M86.749 327.913a21.013 21.013 0 1 1 21.013-21.013 21.037 21.037 0 0 1-21.013 21.013zm0-40.062A19.049 19.049 0 1 0 105.8 306.9a19.071 19.071 0 0 0-19.051-19.049z" class="prefix__cls-2" data-name="Path 19051" transform="translate(-65.737 -285.888)"/>
                    <g id="prefix__Group_9096" data-name="Group 9096" transform="translate(8.346 8.346)">
                        <path id="prefix__Path_19052" d="M90.7 328.767l-.293-.313a12.667 12.667 0 1 1 19.9-1.786l-.371.574-.667-.148a14.163 14.163 0 0 0-3.472-.365 27.454 27.454 0 0 0-6.669.982 29.646 29.646 0 0 1-8 1.054zm8.962-19.662a10.7 10.7 0 0 0-8.1 17.692 27.509 27.509 0 0 0 7.1-.991 29.469 29.469 0 0 1 7.086-1.04 15.772 15.772 0 0 1 3.256.269 10.7 10.7 0 0 0-9.339-15.93z" class="prefix__cls-2" data-name="Path 19052" transform="translate(-86.991 -307.142)"/>
                    </g>
                    <g id="prefix__Group_9097" data-name="Group 9097" transform="translate(2.535 2.275)">
                        <path id="prefix__Path_19054" d="M72.194 334.76l5.184-2.146a12.629 12.629 0 0 0-.057 4.438z" class="prefix__cls-2" data-name="Path 19054" transform="translate(-72.194 -316.541)"/>
                        <path id="prefix__Path_19055" d="M81.605 320.177a13.425 13.425 0 0 0-1.745 4.079l-3.865-4.071z" class="prefix__cls-2" data-name="Path 19055" transform="translate(-74.502 -308.987)"/>
                        <path id="prefix__Path_19056" d="M88.346 310.353l-2.023-5.238 5.188 2.129a13.579 13.579 0 0 0-3.165 3.109z" class="prefix__cls-2" data-name="Path 19056" transform="translate(-80.775 -299.84)"/>
                        <path id="prefix__Path_19057" d="M101.3 300.72l.126-5.614 3.984 3.944a13.418 13.418 0 0 0-4.11 1.67z" class="prefix__cls-2" data-name="Path 19057" transform="translate(-89.87 -293.761)"/>
                        <path id="prefix__Path_19058" d="M115.956 296.64a13.518 13.518 0 0 0-2.127.184l2.256-5.143 2.183 5.171a13.547 13.547 0 0 0-2.312-.212z" class="prefix__cls-2" data-name="Path 19058" transform="translate(-97.48 -291.681)"/>
                        <path id="prefix__Path_19059" d="M127.187 299.248l4.043-3.892.048 5.613a13.425 13.425 0 0 0-4.091-1.721z" class="prefix__cls-2" data-name="Path 19059" transform="translate(-105.593 -293.913)"/>
                        <path id="prefix__Path_19060" d="M139.337 307.637l5.222-2.059-2.094 5.206a13.569 13.569 0 0 0-3.128-3.147z" class="prefix__cls-2" data-name="Path 19060" transform="translate(-112.972 -300.121)"/>
                        <path id="prefix__Path_19061" d="M148.457 320.583l5.614.087-3.918 4.014a13.422 13.422 0 0 0-1.696-4.101z" class="prefix__cls-2" data-name="Path 19061" transform="translate(-118.511 -309.234)"/>
                        <path id="prefix__Path_19062" d="M153.367 335.3a13.557 13.557 0 0 0-.2-2.22l5.158 2.22-5.158 2.22a13.562 13.562 0 0 0 .2-2.22z" class="prefix__cls-2" data-name="Path 19062" transform="translate(-121.373 -316.826)"/>
                    </g>
                    <g id="prefix__Group_9099" data-name="Group 9099" transform="translate(1.278 25.965)">
                        <g id="prefix__Group_9098" data-name="Group 9098">
                            <path id="prefix__Path_19063" fill="#2e6b24" d="M89.1 368.069c-.362 0-1.5-.021-1.864-.049a20.959 20.959 0 0 1-17.853-12.733l-.394-.923.932-.374a5.191 5.191 0 0 1 6.09 1.654A12.272 12.272 0 0 0 84.2 360.3a9 9 0 0 0 4.174-.587 12.731 12.731 0 0 1-8.945-4.041l-1.377-1.61 2.119-.009a27.647 27.647 0 0 0 7.557-1 29.467 29.467 0 0 1 7.086-1.04c5.987-.163 11.8 3.679 12.04 3.843l.748.5-.437.788A21.039 21.039 0 0 1 89.1 368.069zM71.69 355.6c3.25 6.224 8.948 9.676 16.036 10.486a18.963 18.963 0 0 0 17.243-9.071c-1.71-.988-5.95-3.154-10.105-3.032a27.45 27.45 0 0 0-6.669.982 30.147 30.147 0 0 1-5.48.957 10.7 10.7 0 0 0 9.666 1.186l4.236-1.423-3.249 3.068a11.836 11.836 0 0 1-9.355 3.505 14.168 14.168 0 0 1-9.588-5.455 2.959 2.959 0 0 0-2.735-1.203z" data-name="Path 19063" transform="translate(-68.992 -352.012)"/>
                        </g>
                    </g>
                </g>
            </g>
        </g>
        <path id="prefix__Path_21890" d="M17.661-14.952V1.512h-2.636V-8.709l-4.37 10.221H8.689L4.3-8.593V1.512H1.659v-16.464h2.359l5.665 12.88 5.617-12.88zm4.07 0h2.983V1.512h-2.983zm20.882 0V1.512h-2.22l-8.88-11.539V1.512h-2.775v-16.464h2.22l8.857 11.516v-11.516zm4.047 0h11.008v2.359h-8.094v4.555h7.608v2.359h-7.608v4.833h8.094v2.358H46.66zM74.433 1.512h-3.145l-2.1-5.48a1.837 1.837 0 0 0-.856-1.064 3.257 3.257 0 0 0-1.5-.3h-2.99v6.844h-2.96v-16.464h7.053a6.454 6.454 0 0 1 4.255 1.226 4.336 4.336 0 0 1 1.457 3.515 4.48 4.48 0 0 1-.867 2.786 4.7 4.7 0 0 1-2.463 1.63 2.877 2.877 0 0 1 2.1 2.035zm-6.914-9.157a4.078 4.078 0 0 0 2.5-.624 2.245 2.245 0 0 0 .809-1.9 2.2 2.2 0 0 0-.8-1.861 4.129 4.129 0 0 0-2.509-.613H63.8v4.995zm24.929-7.307L85.117 1.512h-2.428l-7.331-16.464h3.1l5.48 12.718 5.481-12.718zm11.4 12.6H95.8l-1.664 3.864h-3.007l7.446-16.464H101l7.469 16.464h-2.979zm-.994-2.312l-3.029-7.053L96.8-4.662z" class="prefix__cls-1" data-name="Path 21890" transform="translate(79.279 119.768)"/>
        <path id="prefix__Path_21891" d="M2.006-4.458H.09v-.875H5v.875H3.08v5H2.006zm3.733-.875H9.67v.842H6.78v1.627H9.5v.842H6.78V-.3h2.89v.847H5.739zM13.3.621A2.994 2.994 0 0 1 11.789.25a2.485 2.485 0 0 1-1-1.053 3.479 3.479 0 0 1-.347-1.6 3.46 3.46 0 0 1 .347-1.59 2.459 2.459 0 0 1 1-1.049 3.021 3.021 0 0 1 1.511-.365 3.326 3.326 0 0 1 1.119.186 2.41 2.41 0 0 1 .871.516l-.347.776a2.8 2.8 0 0 0-.789-.467 2.406 2.406 0 0 0-.838-.145A1.628 1.628 0 0 0 12-3.987a2.4 2.4 0 0 0-.463 1.587A2.441 2.441 0 0 0 12-.8a1.62 1.62 0 0 0 1.321.557 2.406 2.406 0 0 0 .838-.145 2.8 2.8 0 0 0 .789-.467l.347.776a2.41 2.41 0 0 1-.871.516A3.326 3.326 0 0 1 13.3.621zm8.11-5.954v5.88h-1.053V-2h-3.014V.547h-1.049v-5.88h1.049v2.461h3.014v-2.461zm6.227 0v5.88h-.793l-3.167-4.121V.547h-.991v-5.88h.793l3.163 4.113v-4.113zM31.532.621a2.9 2.9 0 0 1-1.483-.367A2.462 2.462 0 0 1 29.075-.8a3.534 3.534 0 0 1-.343-1.6 3.55 3.55 0 0 1 .339-1.6 2.411 2.411 0 0 1 .97-1.045 2.939 2.939 0 0 1 1.491-.363 2.939 2.939 0 0 1 1.491.363A2.386 2.386 0 0 1 33.989-4a3.587 3.587 0 0 1 .334 1.6 3.57 3.57 0 0 1-.338 1.6 2.444 2.444 0 0 1-.967 1.054 2.89 2.89 0 0 1-1.486.367zm0-.851A1.544 1.544 0 0 0 32.8-.791a2.5 2.5 0 0 0 .454-1.61A2.472 2.472 0 0 0 32.8-4a1.549 1.549 0 0 0-1.272-.557A1.554 1.554 0 0 0 30.26-4a2.469 2.469 0 0 0-.454 1.6 2.5 2.5 0 0 0 .454 1.61 1.544 1.544 0 0 0 1.272.561zm3.882-5.1h1.065v5h2.75v.877h-3.816zM42.326.621a2.9 2.9 0 0 1-1.482-.367A2.462 2.462 0 0 1 39.869-.8a3.534 3.534 0 0 1-.343-1.6 3.55 3.55 0 0 1 .339-1.6 2.411 2.411 0 0 1 .97-1.045 2.939 2.939 0 0 1 1.491-.363 2.939 2.939 0 0 1 1.491.363A2.386 2.386 0 0 1 44.783-4a3.587 3.587 0 0 1 .334 1.6 3.57 3.57 0 0 1-.338 1.6 2.444 2.444 0 0 1-.966 1.054 2.89 2.89 0 0 1-1.487.367zm0-.851A1.544 1.544 0 0 0 43.6-.791a2.5 2.5 0 0 0 .454-1.61A2.472 2.472 0 0 0 43.6-4a1.549 1.549 0 0 0-1.272-.557A1.554 1.554 0 0 0 41.054-4a2.469 2.469 0 0 0-.454 1.6 2.5 2.5 0 0 0 .454 1.61 1.544 1.544 0 0 0 1.272.561zm8.787-2.4V.192a4.055 4.055 0 0 1-.975.314 5.842 5.842 0 0 1-1.165.116A3.256 3.256 0 0 1 47.4.258a2.457 2.457 0 0 1-1.027-1.041 3.443 3.443 0 0 1-.355-1.617 3.405 3.405 0 0 1 .355-1.6 2.476 2.476 0 0 1 1.012-1.041 3.131 3.131 0 0 1 1.54-.363 3.622 3.622 0 0 1 1.16.182 2.514 2.514 0 0 1 .9.512l-.363.776a2.915 2.915 0 0 0-.809-.462 2.581 2.581 0 0 0-.867-.14A1.71 1.71 0 0 0 47.575-4a2.389 2.389 0 0 0-.467 1.6 2.419 2.419 0 0 0 .479 1.63 1.794 1.794 0 0 0 1.429.549 4.216 4.216 0 0 0 1.14-.157v-1.487h-1.272v-.768zm3.568.851V.547h-1.065v-2.329l-2.387-3.551h1.214l1.7 2.659 1.71-2.659h1.214zm6.954 2.4A4.29 4.29 0 0 1 60.368.44a2.914 2.914 0 0 1-1-.52l.363-.776a3.1 3.1 0 0 0 .9.475 3.262 3.262 0 0 0 1.02.153 1.749 1.749 0 0 0 .946-.215.678.678 0 0 0 .334-.6.557.557 0 0 0-.31-.508 3.887 3.887 0 0 0-1.02-.334 4.235 4.235 0 0 1-1.61-.619 1.3 1.3 0 0 1-.5-1.107 1.583 1.583 0 0 1 .281-.925 1.874 1.874 0 0 1 .8-.636 2.894 2.894 0 0 1 1.193-.231 3.7 3.7 0 0 1 1.177.186 2.461 2.461 0 0 1 .913.516l-.355.776a2.712 2.712 0 0 0-1.734-.628 1.525 1.525 0 0 0-.9.235.745.745 0 0 0-.33.64.585.585 0 0 0 .293.529 3.477 3.477 0 0 0 1 .339 7.156 7.156 0 0 1 1.2.376 1.782 1.782 0 0 1 .71.52 1.257 1.257 0 0 1 .248.8 1.54 1.54 0 0 1-.281.921 1.793 1.793 0 0 1-.809.607 3.3 3.3 0 0 1-1.262.207zm5.938 0a2.9 2.9 0 0 1-1.482-.367A2.462 2.462 0 0 1 65.117-.8a3.534 3.534 0 0 1-.343-1.6 3.55 3.55 0 0 1 .338-1.6 2.411 2.411 0 0 1 .97-1.045 2.939 2.939 0 0 1 1.491-.363 2.939 2.939 0 0 1 1.491.363A2.386 2.386 0 0 1 70.031-4a3.587 3.587 0 0 1 .334 1.6 3.57 3.57 0 0 1-.339 1.6A2.444 2.444 0 0 1 69.06.254a2.89 2.89 0 0 1-1.486.367zm0-.851a1.544 1.544 0 0 0 1.272-.562A2.5 2.5 0 0 0 69.3-2.4a2.472 2.472 0 0 0-.455-1.6 1.549 1.549 0 0 0-1.272-.557A1.554 1.554 0 0 0 66.3-4a2.469 2.469 0 0 0-.454 1.6A2.5 2.5 0 0 0 66.3-.791a1.544 1.544 0 0 0 1.274.562zm3.882-5.1h1.065v5h2.75v.877h-3.815zM78.269.621A2.492 2.492 0 0 1 76.431 0a2.479 2.479 0 0 1-.624-1.829v-3.5h1.049v3.559a1.664 1.664 0 0 0 .355 1.152 1.354 1.354 0 0 0 1.057.392 1.338 1.338 0 0 0 1.045-.4 1.654 1.654 0 0 0 .359-1.148v-3.559h1.049v3.5a2.472 2.472 0 0 1-.628 1.825 2.472 2.472 0 0 1-1.824.629zm5.063-5.079h-1.917v-.875h4.915v.875h-1.925v5h-1.073zm3.733-.875h1.065v5.88h-1.065zM92.012.621a2.9 2.9 0 0 1-1.483-.367A2.462 2.462 0 0 1 89.555-.8a3.533 3.533 0 0 1-.343-1.6A3.55 3.55 0 0 1 89.55-4a2.411 2.411 0 0 1 .97-1.045 2.939 2.939 0 0 1 1.491-.363 2.939 2.939 0 0 1 1.491.363A2.386 2.386 0 0 1 94.469-4a3.587 3.587 0 0 1 .331 1.6 3.57 3.57 0 0 1-.335 1.6A2.444 2.444 0 0 1 93.5.254a2.89 2.89 0 0 1-1.488.367zm0-.851a1.544 1.544 0 0 0 1.272-.562 2.5 2.5 0 0 0 .454-1.61A2.472 2.472 0 0 0 93.284-4a1.549 1.549 0 0 0-1.272-.557A1.554 1.554 0 0 0 90.74-4a2.469 2.469 0 0 0-.454 1.6 2.5 2.5 0 0 0 .454 1.61 1.544 1.544 0 0 0 1.272.561zm8.837-5.1V.547h-.793l-3.172-4.121V.547h-.991v-5.88h.793l3.163 4.113v-4.113zm3.27 5.951a4.29 4.29 0 0 1-1.268-.181 2.914 2.914 0 0 1-1-.52l.363-.776a3.1 3.1 0 0 0 .9.475 3.262 3.262 0 0 0 1.02.153 1.749 1.749 0 0 0 .946-.215.678.678 0 0 0 .334-.6.557.557 0 0 0-.31-.508 3.887 3.887 0 0 0-1.02-.334 4.235 4.235 0 0 1-1.61-.619 1.3 1.3 0 0 1-.5-1.107 1.583 1.583 0 0 1 .281-.925 1.874 1.874 0 0 1 .8-.636 2.894 2.894 0 0 1 1.193-.231 3.7 3.7 0 0 1 1.177.186 2.46 2.46 0 0 1 .913.516l-.355.776a2.712 2.712 0 0 0-1.734-.628 1.525 1.525 0 0 0-.9.235.745.745 0 0 0-.33.64.585.585 0 0 0 .293.529 3.477 3.477 0 0 0 1 .339 7.156 7.156 0 0 1 1.2.376 1.782 1.782 0 0 1 .71.52 1.257 1.257 0 0 1 .248.8 1.541 1.541 0 0 1-.281.921 1.793 1.793 0 0 1-.809.607 3.3 3.3 0 0 1-1.261.207z" class="prefix__cls-1" data-name="Path 21891" transform="translate(79.121 134.365)"/>
    </g>
</svg>
