<svg xmlns="http://www.w3.org/2000/svg" xmlns:xlink="http://www.w3.org/1999/xlink" width="265" height="275" viewBox="0 0 265 275">
  <defs>
    <linearGradient id="linear-gradient" x1="0.5" y1="-0.43" x2="0.5" y2="1" gradientUnits="objectBoundingBox">
      <stop offset="0" stop-color="#7bce92"/>
      <stop offset="1" stop-color="#367be3"/>
    </linearGradient>
    <linearGradient id="linear-gradient-2" x1="0.5" x2="0.5" y2="1" gradientUnits="objectBoundingBox">
      <stop offset="0" stop-color="#cfdeff"/>
      <stop offset="1" stop-color="#ddc5f6"/>
    </linearGradient>
    <linearGradient id="linear-gradient-3" x1="1" y1="0.073" x2="0" y2="0.686" gradientUnits="objectBoundingBox">
      <stop offset="0" stop-color="#9155ce"/>
      <stop offset="1" stop-color="#367be3"/>
    </linearGradient>
  </defs>
  <g id="activate_account" transform="translate(-1131 -403)">
    <ellipse id="Shape" cx="132.5" cy="10" rx="132.5" ry="10" transform="translate(1131 658)" fill="#b6a0d1" opacity="0.2"/>
    <g id="Group_14449" data-name="Group 14449" transform="translate(-29)">
      <path id="Shape-2" data-name="Shape" d="M27.014,94a2,2,0,0,1,2-2q1.386,0,2.76-.088a2,2,0,1,1,.257,3.991q-1.5.1-3.015.1A2,2,0,0,1,27.014,94Zm12.724-1.258a2,2,0,0,1,1.348-2.486,41.826,41.826,0,0,0,5.364-2A2,2,0,0,1,48.1,91.9a45.514,45.514,0,0,1-5.878,2.193,2,2,0,0,1-2.487-1.348Zm14.6-6.648a2,2,0,0,1,.355-2.806,40.762,40.762,0,0,0,4.262-3.812,2,2,0,1,1,2.87,2.785,44.59,44.59,0,0,1-4.681,4.188,2,2,0,0,1-2.806-.355Zm11.1-11.451a2,2,0,0,1-.713-2.737,38.714,38.714,0,0,0,2.517-5.119,2,2,0,1,1,3.71,1.495,42.609,42.609,0,0,1-2.777,5.648,2,2,0,0,1-2.737.713Zm5.945-14.788a2,2,0,0,1-1.716-2.248A38.563,38.563,0,0,0,70,52.5c0-.2,0-.39,0-.585a2,2,0,0,1,4-.06q0,.323,0,.645a42.449,42.449,0,0,1-.374,5.643,2,2,0,0,1-2.248,1.717ZM68.7,42.588a38.159,38.159,0,0,0-1.885-5.381,2,2,0,0,1,3.667-1.6,42.262,42.262,0,0,1,2.082,5.945A2,2,0,1,1,68.7,42.588ZM61.923,28.955a40.159,40.159,0,0,0-3.806-4.264A2,2,0,0,1,60.9,21.821a44.29,44.29,0,0,1,4.185,4.689,2,2,0,0,1-3.166,2.444ZM0,10.5A10.5,10.5,0,1,1,10.5,21,10.5,10.5,0,0,1,0,10.5Zm50.554,8.392a41.4,41.4,0,0,0-5.107-2.586A2,2,0,0,1,47,12.622a45.6,45.6,0,0,1,5.6,2.835,2,2,0,1,1-2.049,3.435Zm-14.261-5.27a42.708,42.708,0,0,0-5.7-.593,2,2,0,0,1,.147-4,46.637,46.637,0,0,1,6.235.65,2,2,0,1,1-.681,3.941Z" transform="translate(1348 467)" fill="#d4dfff"/>
      <circle id="Shape-3" data-name="Shape" cx="28.5" cy="28.5" r="28.5" transform="translate(1335 403)" fill="url(#linear-gradient)"/>
      <path id="Shape-4" data-name="Shape" d="M31.1,1.31a4.688,4.688,0,0,1,6.648.147A4.736,4.736,0,0,1,37.6,8.133L16.673,28.245a4.69,4.69,0,0,1-7.292-1L.661,12.514A4.707,4.707,0,1,1,8.744,7.689l5.7,9.629Z" transform="translate(1344.5 416.723)" fill="#fff"/>
      <path id="Shape-5" data-name="Shape" d="M1.231,55.349,74.694,1.73a9,9,0,0,1,10.612,0l73.463,53.619H160v94.305a9,9,0,0,1-9,9H9a9,9,0,0,1-9-9V55.349Z" transform="translate(1210 467.346)" fill="#5ebfff"/>
      <path id="Shape-6" data-name="Shape" d="M16,0H75.314l36.51,37.92v98.726a16,16,0,0,1-16,16H16a16,16,0,0,1-16-16V16A16,16,0,0,1,16,0Z" transform="translate(1234 440)" fill="url(#linear-gradient-2)"/>
      <path id="Shape-7" data-name="Shape" d="M70.569,89.892a1.6,1.6,0,0,1-1.6-1.6v-1.04a1.6,1.6,0,0,1,1.6-1.6H80.924a1.6,1.6,0,0,1,1.6,1.6v1.04a1.6,1.6,0,0,1-1.6,1.6Zm-38.969,0a1.6,1.6,0,0,1-1.6-1.6v-1.04a1.6,1.6,0,0,1,1.6-1.6H63.98a1.6,1.6,0,0,1,1.6,1.6v1.04a1.6,1.6,0,0,1-1.6,1.6ZM4.586,80.563A7.624,7.624,0,1,1,12.209,88.2,7.628,7.628,0,0,1,4.586,80.563Zm27.014,1.7a1.6,1.6,0,0,1-1.6-1.6v-1.04a1.6,1.6,0,0,1,1.6-1.6H80.924a1.6,1.6,0,0,1,1.6,1.6v1.04a1.6,1.6,0,0,1-1.6,1.6Zm0-7.632a1.6,1.6,0,0,1-1.6-1.6V71.987a1.6,1.6,0,0,1,1.6-1.6H55.509a1.6,1.6,0,0,1,1.6,1.6v1.039a1.6,1.6,0,0,1-1.6,1.6Zm-30-19.5a1.6,1.6,0,0,1-1.6-1.6v-1.04a1.6,1.6,0,0,1,1.6-1.6H80.924a1.6,1.6,0,0,1,1.6,1.6v1.04a1.6,1.6,0,0,1-1.6,1.6Zm40-6.784a1.6,1.6,0,0,1-1.6-1.6V45.7a1.6,1.6,0,0,1,1.6-1.6H80.924a1.6,1.6,0,0,1,1.6,1.6v1.04a1.6,1.6,0,0,1-1.6,1.6Zm-40,0a1.6,1.6,0,0,1-1.6-1.6V45.7a1.6,1.6,0,0,1,1.6-1.6H30.923a1.6,1.6,0,0,1,1.6,1.6v1.04a1.6,1.6,0,0,1-1.6,1.6Zm0-7.632a1.6,1.6,0,0,1-1.6-1.6v-1.04a1.6,1.6,0,0,1,1.6-1.6H80.924a1.6,1.6,0,0,1,1.6,1.6v1.04a1.6,1.6,0,0,1-1.6,1.6Zm0-7.633a1.6,1.6,0,0,1-1.6-1.6v-1.04a1.6,1.6,0,0,1,1.6-1.6H35.509a1.6,1.6,0,0,1,1.6,1.6v1.04a1.6,1.6,0,0,1-1.6,1.6ZM70.569,19.5a1.6,1.6,0,0,1-1.6-1.6V16.865a1.6,1.6,0,0,1,1.6-1.6H80.924a1.6,1.6,0,0,1,1.6,1.6V17.9a1.6,1.6,0,0,1-1.6,1.6ZM1.6,19.5A1.6,1.6,0,0,1,0,17.9V16.865a1.6,1.6,0,0,1,1.6-1.6H63.98a1.6,1.6,0,0,1,1.6,1.6V17.9a1.6,1.6,0,0,1-1.6,1.6Zm0-7.632a1.6,1.6,0,0,1-1.6-1.6V9.232a1.6,1.6,0,0,1,1.6-1.6H80.924a1.6,1.6,0,0,1,1.6,1.6v1.04a1.6,1.6,0,0,1-1.6,1.6Zm0-7.633A1.6,1.6,0,0,1,0,2.641V1.6A1.6,1.6,0,0,1,1.6,0H58.4A1.6,1.6,0,0,1,60,1.6v1.04a1.6,1.6,0,0,1-1.6,1.6Z" transform="translate(1246.357 471.377)" fill="#fff"/>
      <path id="Shape-8" data-name="Shape" d="M0,0,37.034,37.073H16.943A16.952,16.952,0,0,1,0,20.112Z" transform="translate(1309.396 440.166)" fill="#aabdee"/>
      <path id="Shape-9" data-name="Shape" d="M0,0,75.23,47.018a9,9,0,0,0,9.54,0L160,0V94.305a9,9,0,0,1-9,9H9a9,9,0,0,1-9-9Z" transform="translate(1210 522.695)" fill="url(#linear-gradient-3)"/>
      <path id="Shape-10" data-name="Shape" d="M153.787,52.371a8.965,8.965,0,0,1-5.893,2.2h-142A8.965,8.965,0,0,1,0,52.371L71.7,1.653a9,9,0,0,1,10.4,0l71.7,50.719Z" transform="translate(1213.106 571.432)" fill="#a8dafc"/>
    </g>
  </g>
</svg>
